<?xml version="1.0" encoding="UTF-8" standalone="no"?>
<!-- Created with Inkscape (http://www.inkscape.org/) -->

<svg
   xmlns:dc="http://purl.org/dc/elements/1.1/"
   xmlns:cc="http://creativecommons.org/ns#"
   xmlns:rdf="http://www.w3.org/1999/02/22-rdf-syntax-ns#"
   xmlns:svg="http://www.w3.org/2000/svg"
   xmlns="http://www.w3.org/2000/svg"
   xmlns:sodipodi="http://sodipodi.sourceforge.net/DTD/sodipodi-0.dtd"
   xmlns:inkscape="http://www.inkscape.org/namespaces/inkscape"
   width="197.03424mm"
   height="142.47406mm"
   viewBox="0 0 698.1528 504.82933"
   id="svg12919"
   version="1.1"
   inkscape:version="0.91 r13725"
   sodipodi:docname="logo.svg"
   inkscape:export-filename="/home/sheijl/api-documentation/source/images/logo.png"
   inkscape:export-xdpi="38.68634"
   inkscape:export-ydpi="38.68634">
  <defs
     id="defs12921" />
  <sodipodi:namedview
     id="base"
     pagecolor="#ffffff"
     bordercolor="#666666"
     borderopacity="1.0"
     inkscape:pageopacity="0.0"
     inkscape:pageshadow="2"
     inkscape:zoom="1.4"
     inkscape:cx="342.59221"
     inkscape:cy="265.05734"
     inkscape:document-units="px"
     inkscape:current-layer="g13501"
     showgrid="false"
     width="600mm"
     inkscape:window-width="1920"
     inkscape:window-height="1137"
     inkscape:window-x="0"
     inkscape:window-y="27"
     inkscape:window-maximized="1"
     fit-margin-top="0"
     fit-margin-left="0"
     fit-margin-right="0"
     fit-margin-bottom="0" />
  <metadata
     id="metadata12924">
    <rdf:RDF>
      <cc:Work
         rdf:about="">
        <dc:format>image/svg+xml</dc:format>
        <dc:type
           rdf:resource="http://purl.org/dc/dcmitype/StillImage" />
        <dc:title></dc:title>
      </cc:Work>
    </rdf:RDF>
  </metadata>
  <g
     inkscape:label="Layer 1"
     inkscape:groupmode="layer"
     id="layer1"
     transform="translate(-25.646226,-368.47445)">
    <g
       id="g13501">
      <g
         id="g13518"
         transform="matrix(0,0.76990447,-0.76990447,0,751.14932,396.18161)">
        <g
           id="g22"
           transform="matrix(1.25,0,0,-1.25,475.31307,598.7127)">
          <path
             d="m 0,0 c 0,-37.063 -30.046,-67.644 -67.109,-67.644 l 0,-36.515 C -9.879,-104.159 36.515,-57.23 36.515,0 L 0,0 Z"
             style="fill:#f1f2f2;fill-opacity:1;fill-rule:nonzero;stroke:none"
             id="path24"
             inkscape:connector-curvature="0" />
        </g>
        <g
           id="g26"
           transform="matrix(1.25,0,0,-1.25,475.31307,171.9311)">
          <path
             d="m 0,0 c 0,-37.063 -30.046,-67.109 -67.109,-67.109 l 0,-36.229 c 57.23,0 103.624,46.108 103.624,103.338 0,57.23 -46.394,103.625 -103.624,103.625 l 0,-36.516 C -30.046,67.109 0,37.063 0,0"
             style="fill:#f1f2f2;fill-opacity:1;fill-rule:nonzero;stroke:none"
             id="path28"
             inkscape:connector-curvature="0" />
        </g>
        <g
           id="g30"
           transform="matrix(1.25,0,0,-1.25,520.9527,598.7078)">
          <path
             d="m 0,0 -36.51,0 c 0,37.06 -30.05,67.109 -67.11,67.109 l 0,-0.049 c -57.23,0 -103.63,46.399 -103.63,103.629 0,28.621 11.601,54.52 30.351,73.27 18.759,18.75 44.66,30.351 73.279,30.351 l 0,-36.23 c -37.06,0 -67.109,-30.33 -67.109,-67.391 0,-37.06 30.049,-67.109 67.109,-67.109 l 0,0.04 C -46.39,103.62 0,57.229 0,0"
             style="fill:#a75265;fill-opacity:1;fill-rule:nonzero;stroke:none"
             id="path32"
             inkscape:connector-curvature="0" />
        </g>
        <g
           id="g34"
           transform="matrix(1.25,0,0,-1.25,391.42632,896.6838)">
          <path
             d="m 0,0 0,0 c -37.063,0 -67.109,30.046 -67.109,67.109 0,37.063 30.046,67.109 67.109,67.109 l 0,36.515 c -57.23,0 -103.624,-46.394 -103.624,-103.624 C -103.624,9.879 -57.23,-36.516 0,-36.516 L 0,0 Z"
             style="fill:#febe7e;fill-opacity:1;fill-rule:nonzero;stroke:none"
             id="path36"
             inkscape:connector-curvature="0" />
        </g>
        <path
           d="m 618.65282,384.6331 -45.6375,0 c 0,-46.325 -37.5625,-83.8875 -83.8875,-83.8875 l -97.7,0.3625 -98.5125,0.35 c -71.5375,0 -129.525,-57.9875 -129.525,-129.525 0,-35.7625 14.5,-68.15 37.9375,-91.6 23.43875,-23.4375 55.825,-37.9375 91.5875,-37.9375 l 98.5125,0 0,45.65 -98.5125,0 c -46.32375,0 -83.8875,37.55 -83.8875,83.8875 0,46.325 37.56375,83.8875 83.8875,83.8875 l 196.2125,0 c 71.5375,0 129.525,57.275 129.525,128.8125"
           style="fill:#57385c;fill-opacity:1;fill-rule:nonzero;stroke:none"
           id="path108"
           inkscape:connector-curvature="0" />
        <g
           id="g5174"
           transform="matrix(1.25,0,0,-1.25,619.71607,812.796)">
          <path
             d="m 0,0 -36.521,0 c 0,37.061 -30.049,67.11 -67.11,67.11 l -158,0 c -57.229,0 -103.629,46.39 -103.629,103.62 0,57.23 46.4,103.63 103.629,103.63 l 79,0.53 0,-36.51 -79,-0.54 c -37.059,0 -67.109,-30.04 -67.109,-67.11 0,-37.06 30.05,-67.11 67.109,-67.11 l 158,0 C -46.4,103.62 0,57.23 0,0"
             style="fill:#ec7263;fill-opacity:1;fill-rule:nonzero;stroke:none"
             id="path5176"
             inkscape:connector-curvature="0" />
        </g>
        <g
           id="g6602"
           transform="matrix(1.25,0,0,-1.25,573.01195,384.6356)">
          <path
             d="m 0,0 c 0,-37.063 -30.046,-67.109 -67.109,-67.109 l -78.16,-0.529 0,-36.514 78.16,0.528 C -9.879,-103.624 36.515,-57.23 36.515,0 L 0,0 Z"
             style="fill:#f1f2f2;fill-opacity:1;fill-rule:nonzero;stroke:none"
             id="path6604"
             inkscape:connector-curvature="0" />
        </g>
        <g
           id="g6606"
           transform="matrix(1.25,0,0,-1.25,574.06545,812.7983)">
          <path
             d="m 0,0 c 0,-37.063 -30.045,-67.108 -67.108,-67.108 l -79.003,0.03 0,-36.546 79.003,0 C -9.879,-103.624 36.516,-57.229 36.516,0 L 0,0 Z"
             style="fill:#f1f2f2;fill-opacity:1;fill-rule:nonzero;stroke:none"
             id="path6608"
             inkscape:connector-curvature="0" />
        </g>
      </g>
      <text
         xml:space="preserve"
         style="font-style:normal;font-variant:normal;font-weight:300;font-stretch:normal;font-size:178.93934631px;line-height:125%;font-family:'Avenir LT Std';-inkscape-font-specification:'Avenir LT Std Light';letter-spacing:-2.1293776px;word-spacing:-3.33423638px;fill:#000000;fill-opacity:1;stroke:none;stroke-width:1px;stroke-linecap:butt;stroke-linejoin:miter;stroke-opacity:1"
         x="20.527626"
         y="493.01624"
         id="text13535"
         sodipodi:linespacing="125%"><tspan
           sodipodi:role="line"
           id="tspan13537"
           x="20.527626"
           y="493.01624"
           style="font-style:normal;font-variant:normal;font-weight:300;font-stretch:normal;font-family:'Avenir LT Std';-inkscape-font-specification:'Avenir LT Std Light'">corona.ai</tspan></text>
    </g>
  </g>
</svg>
